<svg width="27" height="26" viewBox="0 0 27 26" fill="none" xmlns="http://www.w3.org/2000/svg">
<g clip-path="url(#clip0_18_10)">
<path d="M6.76575 0.0401917C6.23929 0.0401917 5.81253 0.441858 5.81253 0.937356V2.73163H7.71892V0.937356C7.71892 0.441858 7.29215 0.0401917 6.76575 0.0401917Z" fill="white"/>
<path d="M20.1105 0.0401917C19.584 0.0401917 19.1573 0.441858 19.1573 0.937356V2.73163H21.0636V0.937356C21.0637 0.441858 20.6369 0.0401917 20.1105 0.0401917Z" fill="white"/>
<path d="M23.9233 2.73163H21.0637V6.32024C21.0637 6.81574 20.6369 7.2174 20.1105 7.2174C19.584 7.2174 19.1573 6.81574 19.1573 6.32024V2.73163H7.71889V6.32024C7.71889 6.81574 7.29213 7.2174 6.76567 7.2174C6.23922 7.2174 5.81246 6.81574 5.81246 6.32024V2.73163H2.95292C1.37361 2.73163 0.0933228 3.93663 0.0933228 5.42307V22.4689C0.0933228 23.9553 1.37361 25.1603 2.95292 25.1603H23.9233C25.5026 25.1603 26.7829 23.9553 26.7829 22.4689V5.42307C26.7829 3.93663 25.5026 2.73163 23.9233 2.73163ZM24.8765 22.4689C24.8765 22.9644 24.4497 23.3661 23.9232 23.3661H2.95292C2.42646 23.3661 1.9997 22.9644 1.9997 22.4689V10.806H24.8765V22.4689Z" fill="white"/>
<path d="M7.71888 12.6003H5.8125C5.28605 12.6003 4.85928 13.0019 4.85928 13.4974C4.85928 13.9929 5.28605 14.3946 5.8125 14.3946H7.71888C8.24534 14.3946 8.6721 13.9929 8.6721 13.4974C8.6721 13.0019 8.24534 12.6003 7.71888 12.6003Z" fill="white"/>
<path d="M14.3913 12.6003H12.4849C11.9585 12.6003 11.5317 13.0019 11.5317 13.4974C11.5317 13.9929 11.9585 14.3946 12.4849 14.3946H14.3913C14.9178 14.3946 15.3445 13.9929 15.3445 13.4974C15.3445 13.0019 14.9178 12.6003 14.3913 12.6003Z" fill="white"/>
<path d="M21.0637 12.6003H19.1573C18.6309 12.6003 18.2041 13.0019 18.2041 13.4974C18.2041 13.9929 18.6309 14.3946 19.1573 14.3946H21.0637C21.5902 14.3946 22.0169 13.9929 22.0169 13.4974C22.0169 13.0019 21.5901 12.6003 21.0637 12.6003Z" fill="white"/>
<path d="M7.71888 16.1888H5.8125C5.28605 16.1888 4.85928 16.5905 4.85928 17.086C4.85928 17.5815 5.28605 17.9832 5.8125 17.9832H7.71888C8.24534 17.9832 8.6721 17.5815 8.6721 17.086C8.6721 16.5905 8.24534 16.1888 7.71888 16.1888Z" fill="white"/>
<path d="M14.3913 16.1888H12.4849C11.9585 16.1888 11.5317 16.5905 11.5317 17.086C11.5317 17.5815 11.9585 17.9832 12.4849 17.9832H14.3913C14.9178 17.9832 15.3445 17.5815 15.3445 17.086C15.3445 16.5905 14.9178 16.1888 14.3913 16.1888Z" fill="white"/>
<path d="M21.0637 16.1888H19.1573C18.6309 16.1888 18.2041 16.5905 18.2041 17.086C18.2041 17.5815 18.6309 17.9832 19.1573 17.9832H21.0637C21.5902 17.9832 22.0169 17.5815 22.0169 17.086C22.0169 16.5905 21.5901 16.1888 21.0637 16.1888Z" fill="white"/>
<path d="M7.71888 19.7774H5.8125C5.28605 19.7774 4.85928 20.1791 4.85928 20.6746C4.85928 21.1701 5.28605 21.5717 5.8125 21.5717H7.71888C8.24534 21.5717 8.6721 21.17 8.6721 20.6745C8.6721 20.179 8.24534 19.7774 7.71888 19.7774Z" fill="white"/>
<path d="M14.3913 19.7774H12.4849C11.9585 19.7774 11.5317 20.1791 11.5317 20.6746C11.5317 21.1701 11.9585 21.5718 12.4849 21.5718H14.3913C14.9178 21.5718 15.3445 21.1701 15.3445 20.6746C15.3445 20.1791 14.9178 19.7774 14.3913 19.7774Z" fill="white"/>
<path d="M21.0637 19.7774H19.1573C18.6309 19.7774 18.2041 20.1791 18.2041 20.6746C18.2041 21.1701 18.6309 21.5718 19.1573 21.5718H21.0637C21.5902 21.5718 22.0169 21.1701 22.0169 20.6746C22.0169 20.1791 21.5901 19.7774 21.0637 19.7774Z" fill="white"/>
</g>
<defs>
<clipPath id="clip0_18_10">
<rect width="26.6896" height="25.1201" fill="white" transform="translate(0.0933228 0.0401917)"/>
</clipPath>
</defs>
</svg>
