<svg width="64" height="64" viewBox="0 0 64 64" fill="none" xmlns="http://www.w3.org/2000/svg">
<rect width="64" height="64" rx="32" fill="white"/>
<g clip-path="url(#clip0_23_90)">
<path d="M49.3684 18.6666H25.9639V22.9186H16.4182L12 30.4277V41.3886H15.5293C15.8203 42.5167 16.4834 43.5168 17.4139 44.2312C18.3444 44.9455 19.4893 45.3333 20.6678 45.3333C21.8462 45.3333 22.9911 44.9455 23.9216 44.2312C24.8521 43.5168 25.5152 42.5167 25.8062 41.3886H37.7296C38.0206 42.5167 38.6837 43.5168 39.6142 44.2312C40.5447 44.9455 41.6896 45.3333 42.8681 45.3333C44.0466 45.3333 45.1914 44.9455 46.1219 44.2312C47.0524 43.5168 47.7156 42.5167 48.0066 41.3886H52V18.6666H49.3727H49.3684ZM17.9332 25.5139H25.9639V29.5453H15.5643L17.9332 25.5139ZM14.6273 32.1277H25.9639V38.7932H25.8062C25.5152 37.6652 24.8521 36.6649 23.9216 35.9507C22.9911 35.2363 21.8462 34.8485 20.6678 34.8485C19.4893 34.8485 18.3444 35.2363 17.4139 35.9507C16.4834 36.6649 15.8203 37.6652 15.5293 38.7932H14.6273V32.1277ZM20.6699 42.7381C20.1389 42.7381 19.6198 42.5825 19.1782 42.2909C18.7367 41.9994 18.3927 41.585 18.1897 41.1003C17.9866 40.6155 17.9337 40.0822 18.0377 39.5677C18.1416 39.0532 18.3977 38.5808 18.7735 38.2101C19.1494 37.8394 19.628 37.5873 20.149 37.4854C20.6699 37.3837 21.2098 37.4367 21.7002 37.6381C22.1906 37.8394 22.6095 38.18 22.9039 38.6166C23.1983 39.0532 23.355 39.5663 23.3541 40.0909C23.3541 40.7942 23.0714 41.4686 22.5679 41.9658C22.0646 42.4631 21.3819 42.7424 20.6699 42.7424V42.7381ZM42.8659 42.7381C42.3349 42.7381 41.8157 42.5825 41.3742 42.2909C40.9327 41.9994 40.5886 41.585 40.3856 41.1003C40.1826 40.6155 40.1297 40.0822 40.2336 39.5677C40.3376 39.0532 40.5936 38.5808 40.9694 38.2101C41.3453 37.8394 41.824 37.5873 42.3449 37.4854C42.8659 37.3837 43.4057 37.4367 43.8961 37.6381C44.3865 37.8394 44.8054 38.18 45.0999 38.6166C45.3943 39.0532 45.5509 39.5663 45.5501 40.0909C45.5501 40.7942 45.2673 41.4686 44.7639 41.9658C44.2605 42.4631 43.5778 42.7424 42.8659 42.7424V42.7381ZM48.0022 38.7932C47.7112 37.6652 47.0481 36.6649 46.1176 35.9507C45.1871 35.2363 44.0421 34.8485 42.8637 34.8485C41.6852 34.8485 40.5404 35.2363 39.6099 35.9507C38.6794 36.6649 38.0162 37.6652 37.7252 38.7932H28.5911V21.2619H49.3684V38.7932H48.0022Z" fill="black" stroke="black" stroke-width="0.714286"/>
<path d="M45.2214 28.3258H31.5028V30.9211H45.2214V28.3258Z" fill="black" stroke="black" stroke-width="0.714286"/>
<path d="M36.026 32.651H31.5028V35.2463H36.026V32.651Z" fill="black" stroke="black" stroke-width="0.714286"/>
<path d="M40.8427 23.9995H31.5028V26.5948H40.8427V23.9995Z" fill="black" stroke="black" stroke-width="0.714286"/>
</g>
<defs>
<clipPath id="clip0_23_90">
<rect width="40" height="56" fill="white" transform="translate(12 4)"/>
</clipPath>
</defs>
</svg>
