<svg width="769" height="494" viewBox="0 0 769 494" fill="none" xmlns="http://www.w3.org/2000/svg">
<g clip-path="url(#clip0_1_62)">
<g clip-path="url(#clip1_1_62)">
<g clip-path="url(#clip2_1_62)">
<path opacity="0.04" d="M347.3 466.724L346.462 26.7446C346.452 25.9149 346.692 25.1014 347.15 24.4089C347.609 23.7163 348.265 23.1765 349.034 22.859L397.61 6.24609C398.227 6.01971 398.89 5.948 399.541 6.03725C400.192 6.12651 400.81 6.37397 401.343 6.75788C401.875 7.1418 402.304 7.65033 402.593 8.23868C402.882 8.82704 403.02 9.47716 402.998 10.1317V483.868C403.02 484.523 402.882 485.173 402.593 485.761C402.304 486.35 401.875 486.858 401.343 487.242C400.81 487.626 400.192 487.873 399.541 487.963C398.89 488.052 398.227 487.98 397.61 487.754L349.871 470.609C349.102 470.292 348.446 469.752 347.988 469.059C347.53 468.367 347.29 467.553 347.3 466.724ZM273.272 440.194V53.0746C273.3 52.266 273.566 51.4835 274.038 50.8252C274.51 50.1668 275.166 49.6617 275.924 49.3731L311.123 37.279C311.807 36.9379 312.564 36.7664 313.329 36.7789C314.094 36.7914 314.845 36.9875 315.517 37.3508C316.19 37.714 316.765 38.2336 317.194 38.8654C317.622 39.4973 317.892 40.2227 317.979 40.9804L318.45 453.019C318.362 453.777 318.093 454.503 317.665 455.135C317.236 455.766 316.661 456.286 315.988 456.649C315.315 457.012 314.565 457.208 313.8 457.221C313.035 457.233 312.278 457.062 311.594 456.721L275.924 443.896C275.166 443.607 274.51 443.102 274.038 442.444C273.566 441.785 273.3 441.003 273.272 440.194ZM205.904 416.663L205.753 77.0192C205.786 76.2135 206.057 75.4355 206.53 74.7821C207.004 74.1286 207.661 73.6286 208.418 73.3444L238.144 63.0942C238.842 62.7362 239.615 62.5499 240.4 62.5509C241.184 62.5518 241.957 62.7401 242.654 63.0999C243.35 63.4597 243.95 63.9805 244.404 64.6188C244.857 65.2572 245.15 65.9945 245.259 66.769L245.109 427.231C245 428.006 244.706 428.743 244.253 429.381C243.8 430.02 243.2 430.54 242.503 430.9C241.806 431.26 241.033 431.448 240.249 431.449C239.464 431.45 238.691 431.264 237.993 430.906L208.568 420.338C207.811 420.053 207.155 419.553 206.681 418.9C206.207 418.247 205.937 417.468 205.904 416.663ZM91.2696 376.328L90.9661 117.722C90.9642 117.138 91.1228 116.565 91.4249 116.065C91.727 115.565 92.1608 115.157 92.6793 114.886L113.015 107.909C113.498 107.663 114.036 107.546 114.578 107.569C115.119 107.592 115.645 107.754 116.105 108.039C116.566 108.325 116.944 108.724 117.204 109.198C117.464 109.672 117.597 110.204 117.589 110.744L116.823 383.255C116.83 383.795 116.697 384.328 116.437 384.802C116.177 385.276 115.799 385.675 115.339 385.96C114.879 386.246 114.352 386.407 113.811 386.43C113.27 386.453 112.731 386.336 112.249 386.091L92.9828 379.164C92.4644 378.892 92.0305 378.485 91.7284 377.985C91.4264 377.485 91.2677 376.911 91.2696 376.328ZM146.229 395.059L145.602 98.2188C145.636 97.4432 145.893 96.6935 146.341 96.0585C146.789 95.4235 147.41 94.9297 148.13 94.6354L168.383 87.6491C171.727 86.0778 175.888 88.0643 175.888 91.2325L177.74 402.767C177.74 405.936 173.58 407.922 170.236 406.351L148.757 398.642C148.037 398.348 147.415 397.854 146.967 397.219C146.519 396.584 146.263 395.834 146.229 395.059ZM41.2696 357.346L40.4436 136.122C40.4297 135.478 40.5885 134.843 40.9033 134.28C41.218 133.718 41.6775 133.25 42.2343 132.924L56.8338 127.907C57.348 127.664 57.9175 127.56 58.4846 127.608C59.0517 127.655 59.5962 127.851 60.0627 128.176C60.5293 128.501 60.9013 128.943 61.1411 129.457C61.3808 129.972 61.4797 130.54 61.4277 131.105L62.9536 362.895C63.0056 363.46 62.9067 364.028 62.6669 364.543C62.4272 365.057 62.0552 365.499 61.5886 365.824C61.1221 366.149 60.5776 366.345 60.0105 366.392C59.4434 366.439 58.8739 366.336 58.3597 366.093L43.0603 360.544C42.5034 360.218 42.044 359.75 41.7292 359.188C41.4144 358.625 41.2558 357.99 41.2696 357.346ZM0.000160055 343.05V150.544C-0.00295677 149.827 0.185793 149.122 0.546858 148.502C0.907922 147.882 1.42825 147.369 2.05437 147.016L10.7481 144.233C11.3543 143.904 12.0365 143.74 12.7266 143.756C13.4166 143.772 14.0902 143.969 14.6801 144.326C15.27 144.683 15.7554 145.188 16.088 145.791C16.4205 146.394 16.5885 147.073 16.5751 147.761V346.238C16.5885 346.926 16.4205 347.606 16.088 348.208C15.7554 348.811 15.27 349.317 14.6801 349.674C14.0902 350.031 13.4166 350.228 12.7266 350.244C12.0365 350.26 11.3543 350.096 10.7481 349.767L2.05437 346.579C1.42825 346.226 0.907845 345.713 0.546758 345.092C0.185671 344.472 -0.00292278 343.767 0.000160055 343.05Z" fill="white"/>
<path opacity="0.04" d="M456.962 493.701L753.798 449.159C757.908 448.665 761.704 446.718 764.494 443.67C767.285 440.623 768.884 436.678 769 432.554V61.4457C768.884 57.3223 767.285 53.3777 764.494 50.3301C761.704 47.2826 757.908 45.3348 753.798 44.8415L456.962 0.299049C454.466 -0.164449 451.899 -0.0884364 449.435 0.522019C446.971 1.13248 444.668 2.26316 442.68 3.83746C440.693 5.41175 439.068 7.39295 437.915 9.64712C436.763 11.9013 436.11 14.3758 436 16.9033V477.097C436.11 479.624 436.763 482.099 437.915 484.353C439.068 486.607 440.693 488.588 442.68 490.163C444.668 491.737 446.971 492.868 449.435 493.478C451.899 494.088 454.466 494.165 456.962 493.701Z" fill="white"/>
</g>
</g>
</g>
<defs>
<clipPath id="clip0_1_62">
<rect width="769" height="494" fill="white"/>
</clipPath>
<clipPath id="clip1_1_62">
<rect width="769" height="494" fill="white"/>
</clipPath>
<clipPath id="clip2_1_62">
<rect width="769" height="494" fill="white"/>
</clipPath>
</defs>
</svg>
